<?xml version="1.0" standalone="no"?><!-- Generator: Gravit.io --><svg xmlns="http://www.w3.org/2000/svg" xmlns:xlink="http://www.w3.org/1999/xlink" style="isolation:isolate" viewBox="0 0 200 200" width="200" height="200"><defs><clipPath id="_clipPath_jAvCsC8kNHiLZG1ZeWopzcewlQGGMHKU"><rect width="200" height="200"/></clipPath></defs><g clip-path="url(#_clipPath_jAvCsC8kNHiLZG1ZeWopzcewlQGGMHKU)"><g id="Group"><rect x="14" y="11" width="172" height="178" transform="matrix(1,0,0,1,0,0)" fill="rgb(235,235,235)"/><path d=" M 46.659 76.477 L 46.659 76.477 L 46.659 76.477 Q 30.148 76.477 30.148 66.152 L 30.148 66.152 L 30.148 66.152 Q 30.148 60.864 34.089 58.545 L 34.089 58.545 L 34.089 58.545 Q 38.029 56.225 46.11 56.225 L 46.11 56.225 L 46.11 56.225 Q 54.19 56.225 58.031 58.545 L 58.031 58.545 L 58.031 58.545 Q 61.872 60.864 61.872 66.177 L 61.872 66.177 L 61.872 66.177 Q 61.872 71.489 58.305 73.983 L 58.305 73.983 L 58.305 73.983 Q 54.739 76.477 46.659 76.477 Z  M 32.942 141.021 L 32.942 90.194 L 59.777 90.194 L 59.777 141.021 L 32.942 141.021 Z " fill-rule="evenodd" fill="rgb(58,164,228)"/><path d=" M 68.356 171.667 L 68.356 103.781 L 95.94 103.781 L 95.94 149.87 L 95.94 149.87 Q 95.94 160.893 90.902 166.081 L 90.902 166.081 L 90.902 166.081 Q 85.365 171.667 72.845 171.667 L 72.845 171.667 L 68.356 171.667 Z  M 29.899 151.965 L 29.899 148.373 L 60.076 148.373 L 60.076 171.667 L 56.834 171.667 L 56.834 171.667 Q 42.519 171.667 36.234 167.078 L 36.234 167.078 L 36.234 167.078 Q 29.899 162.539 29.899 151.965 L 29.899 151.965 Z " fill-rule="evenodd" fill="rgb(233,165,65)"/><path d=" M 68.406 94.952 L 68.406 27.166 L 95.241 27.166 L 95.241 94.952 L 68.406 94.952 Z  M 103.522 57.542 L 103.522 45.621 L 103.522 45.621 Q 103.522 34.598 109.108 30.807 L 109.108 30.807 L 109.108 30.807 Q 114.395 27.265 129.01 27.265 L 129.01 27.265 L 134.048 27.265 L 134.048 36.693 L 134.048 36.693 Q 134.048 47.965 128.312 52.754 L 128.312 52.754 L 128.312 52.754 Q 122.476 57.542 108.21 57.542 L 108.21 57.542 L 103.522 57.542 Z  M 103.522 75.2 L 103.522 62.73 L 108.21 62.73 L 108.21 62.73 Q 122.276 62.73 128.312 68.316 L 128.312 68.316 L 128.312 68.316 Q 134.048 73.653 134.048 85.176 L 134.048 85.176 L 134.048 95.052 L 129.01 95.052 L 129.01 95.052 Q 114.695 95.052 109.108 90.762 L 109.108 90.762 L 109.108 90.762 Q 103.522 86.423 103.522 75.2 L 103.522 75.2 Z " fill-rule="evenodd" fill="rgb(212,68,41)"/><path d=" M 105.407 171.568 L 105.407 103.781 L 132.242 103.781 L 132.242 171.568 L 105.407 171.568 Z  M 140.822 171.667 L 140.822 166.829 L 140.822 166.829 Q 140.822 156.504 152.793 152.813 L 152.793 152.813 L 152.793 152.813 Q 157.382 151.416 164.614 151.416 L 164.614 151.416 L 168.555 151.416 L 168.555 171.667 L 140.822 171.667 Z " fill-rule="evenodd" fill="rgb(94,190,204)"/><path d=" M 57.862 20.831 C 85.266 21.089 115.086 21.114 147.246 20.831 L 147.246 143.415 L 183 143.415 L 183 186.831 L 24.662 186.831 L 24.662 50.2 L 57.862 50.2 L 57.862 20.831 Z " fill="none" vector-effect="non-scaling-stroke" stroke-width="0.5" stroke="rgb(51,50,50)" stroke-opacity="0.78" stroke-linejoin="miter" stroke-linecap="square" stroke-miterlimit="3"/><path d=" M 50.2 13.169 L 139.585 13.169 L 139.585 135.754 L 175.338 135.754 L 175.338 179.169 L 17 179.169 L 17 41.262 L 50.2 41.262 L 50.2 13.169 Z " fill="none" vector-effect="non-scaling-stroke" stroke-width="0.5" stroke="rgb(96,95,95)" stroke-linejoin="miter" stroke-linecap="square" stroke-miterlimit="3"/></g></g></svg>